<svg id="Capa_1" enable-background="new 0 0 512 512" height="512" viewBox="0 0 512 512" width="512" xmlns="http://www.w3.org/2000/svg"><path d="m317 146.25c-33.084 0-60-26.916-60-60s26.916-60 60-60 60 26.916 60 60-26.916 60-60 60zm0-105c-24.813 0-45 20.187-45 45s20.187 45 45 45 45-20.187 45-45-20.187-45-45-45z" fill="#ff9a42"/><path d="m195 146.25c-33.084 0-60-26.916-60-60s26.916-60 60-60 60 26.916 60 60-26.916 60-60 60zm0-105c-24.813 0-45 20.187-45 45s20.187 45 45 45 45-20.187 45-45-20.187-45-45-45z" fill="#ffba48"/><path d="m22.5 198.75h46.5v242h-46.5z" fill="#ebebeb"/><path d="m69 425.75h-46.5c-8.284 0-15 6.716-15 15s6.716 15 15 15h46.5c8.284 0 15-6.716 15-15s-6.716-15-15-15z" fill="#ffba48"/><path d="m69 123.75h-46.5c-8.284 0-15 6.716-15 15s6.716 15 15 15h46.5c8.284 0 15-6.716 15-15s-6.716-15-15-15z" fill="#ff3a2f"/><path d="m69 183.75h-46.5c-8.284 0-15 6.716-15 15s6.716 15 15 15h46.5c8.284 0 15-6.716 15-15s-6.716-15-15-15z" fill="#ffba48"/><path d="m443 198.75h46.5v242h-46.5z" fill="#ebebeb"/><path d="m489.5 425.75h-46.5c-8.284 0-15 6.716-15 15s6.716 15 15 15h46.5c8.284 0 15-6.716 15-15s-6.716-15-15-15z" fill="#ffba48"/><path d="m489.5 123.75h-46.5c-8.284 0-15 6.716-15 15s6.716 15 15 15h46.5c8.284 0 15-6.716 15-15s-6.716-15-15-15z" fill="#ff3a2f"/><path d="m489.5 183.75h-46.5c-8.284 0-15 6.716-15 15s6.716 15 15 15h46.5c8.284 0 15-6.716 15-15s-6.716-15-15-15z" fill="#ffba48"/><path d="m256 358.75v142c78.425 0 142-63.575 142-142z" fill="#ccc"/><path d="m368 358.75h-254c0 78.425 63.575 142 142 142 61.856 0 112-63.575 112-142z" fill="#ebebeb"/><path d="m338 246.75 17.608 176.981c24.96-11.005 42.392-35.95 42.392-64.981v-52z" fill="#db2116"/><path d="m368 246.75h-172l60 112c0 39.212 31.788 71 71 71 10.181 0 19.854-2.159 28.608-6.019 7.918-19.472 12.392-41.563 12.392-64.981z" fill="#ff3a2f"/><path d="m190.5 276.75 30 143.478c21.216-12.278 35.5-35.202 35.5-61.478v-82z" fill="#ffba48"/><path d="m155 276.75 30 153c12.937 0 25.054-3.477 35.5-9.522v-143.478z" fill="#db2116"/><path d="m114 306.75v52c0 26.275 14.284 49.2 35.5 61.478l30-143.478z" fill="#db2116"/><path d="m185 276.75h-35.5v143.478c10.446 6.045 22.563 9.522 35.5 9.522z" fill="#ffba48"/><path d="m390.5 183.75h-22.5l-30 61.5 30 61.5h30v-115.5c0-4.142-3.358-7.5-7.5-7.5z" fill="#ccc"/><path d="m256 183.75-30 61.5 30 61.5h112v-123z" fill="#ebebeb"/><path d="m114 191.25v115.5h142v-123h-134.5c-4.142 0-7.5 3.358-7.5 7.5z" fill="#ff3a2f"/><circle cx="256" cy="306.75" fill="#2fb3ea" r="35.5"/><path d="m317 78.75h-30l-31 65 61-20c12.406 0 22.5-10.093 22.5-22.5s-10.094-22.5-22.5-22.5z" fill="#db2116"/><path d="m309.5 101.25c0-12.407-10.094-22.5-22.5-22.5h-92c-12.407 0-22.5 10.093-22.5 22.5s10.093 22.5 22.5 22.5l61 20 31-20c12.406 0 22.5-10.093 22.5-22.5z" fill="#ff3a2f"/><circle cx="256" cy="18.75" fill="#25d4f2" r="15"/><path d="m323.728 123.75-30 15 30 15h22.5c4.142 0 7.5-3.358 7.5-7.5v-22.5z" fill="#ff9a42"/><path d="m272 123.75v-73.548c0-8.615-6.621-16.028-15.227-16.434-9.188-.432-16.773 6.889-16.773 15.982v74h-81.728v22.5c0 4.142 3.358 7.5 7.5 7.5h157.956v-30z" fill="#ffba48"/><path d="m84 508.25c-12.247 0-18.699-5.297-23.884-9.553-4.347-3.568-7.488-6.147-14.366-6.147s-10.019 2.579-14.366 6.147c-5.185 4.256-11.637 9.553-23.884 9.553-4.142 0-7.5-3.358-7.5-7.5s3.358-7.5 7.5-7.5c6.878 0 10.019-2.579 14.366-6.147 5.185-4.256 11.637-9.553 23.884-9.553s18.699 5.297 23.884 9.553c4.347 3.568 7.488 6.147 14.366 6.147 4.142 0 7.5 3.358 7.5 7.5s-3.358 7.5-7.5 7.5z" fill="#2fb3ea"/><path d="m504.5 508.25c-12.247 0-18.699-5.297-23.884-9.553-4.347-3.568-7.488-6.147-14.366-6.147s-10.02 2.579-14.366 6.147c-5.185 4.256-11.637 9.553-23.884 9.553-4.143 0-7.5-3.358-7.5-7.5s3.357-7.5 7.5-7.5c6.878 0 10.02-2.579 14.366-6.147 5.185-4.256 11.637-9.553 23.884-9.553s18.699 5.297 23.884 9.553c4.347 3.568 7.488 6.147 14.366 6.147 4.143 0 7.5 3.358 7.5 7.5s-3.357 7.5-7.5 7.5z" fill="#2fb3ea"/><path d="m199.25 206.25c-4.142 0-7.5 3.358-7.5 7.5v15h-15v-15c0-4.142-3.358-7.5-7.5-7.5s-7.5 3.358-7.5 7.5v63c0 4.142 3.358 7.5 7.5 7.5h30c4.142 0 7.5-3.358 7.5-7.5v-63c0-4.142-3.358-7.5-7.5-7.5z" fill="#ffba48"/><path d="m327.75 213.75c-16.569 0-30 13.431-30 30v1.5h15v31.5c0 4.142 3.357 7.5 7.5 7.5s7.5-3.358 7.5-7.5v-31.5h15v31.5c0 4.142 3.357 7.5 7.5 7.5s7.5-3.358 7.5-7.5v-33c0-16.569-13.431-30-30-30z" fill="#ff64ad"/><path d="m337.607 368.25 16.947-16.947c2.929-2.929 2.929-7.678 0-10.606-2.93-2.929-7.678-2.929-10.607 0l-16.947 16.946-16.946-16.946c-2.93-2.929-7.678-2.929-10.607 0s-2.929 7.678 0 10.606l16.947 16.947-16.947 16.947c-2.929 2.929-2.929 7.678 0 10.606 2.93 2.929 7.678 2.929 10.607 0l16.946-16.946 16.946 16.947c2.93 2.929 7.678 2.929 10.607 0s2.929-7.678 0-10.606z" fill="#ffba48"/></svg>