<?xml version="1.0" encoding="iso-8859-1"?>
<!-- Generator: Adobe Illustrator 19.0.0, SVG Export Plug-In . SVG Version: 6.00 Build 0)  -->
<svg version="1.1" id="Capa_1" xmlns="http://www.w3.org/2000/svg" xmlns:xlink="http://www.w3.org/1999/xlink" x="0px" y="0px"
	 viewBox="0 0 512 512" style="enable-background:new 0 0 512 512;" xml:space="preserve">
<linearGradient id="SVGID_1_" gradientUnits="userSpaceOnUse" x1="229.6286" y1="231.2035" x2="229.6286" y2="-19.8365" gradientTransform="matrix(1.0039 0 0 -1.0039 0.1922 516.5618)">
	<stop  offset="0" style="stop-color:#FF931E"/>
	<stop  offset="1" style="stop-color:#FF5D00"/>
</linearGradient>
<polygon style="fill:url(#SVGID_1_);" points="370.575,244.667 370.575,459.994 90.868,459.994 90.868,244.667 230.721,103.967 "/>
<linearGradient id="SVGID_2_" gradientUnits="userSpaceOnUse" x1="218.9193" y1="270.0443" x2="150.0593" y2="338.9042" gradientTransform="matrix(1.0039 0 0 -1.0039 0.1922 516.5618)">
	<stop  offset="0" style="stop-color:#FF5D00;stop-opacity:0"/>
	<stop  offset="1" style="stop-color:#D54003"/>
</linearGradient>
<polygon style="fill:url(#SVGID_2_);" points="370.575,244.667 370.575,459.994 282.264,459.994 90.868,268.6 90.868,244.667 
	230.721,103.967 "/>
<linearGradient id="SVGID_3_" gradientUnits="userSpaceOnUse" x1="283.1707" y1="220.6856" x2="203.1107" y2="300.7456" gradientTransform="matrix(1.0039 0 0 -1.0039 0.1922 516.5618)">
	<stop  offset="0" style="stop-color:#FF5D00;stop-opacity:0"/>
	<stop  offset="1" style="stop-color:#D54003"/>
</linearGradient>
<path style="fill:url(#SVGID_3_);" d="M370.532,446.539V315.316l-109.49-109.489c-7.416-8.42-18.265-13.747-30.341-13.747
	c-22.298,0-40.439,18.141-40.439,40.439v29.739c0,3.884,2.087,7.281,5.192,9.156C195.456,271.415,370.499,446.487,370.532,446.539z"
	/>
<linearGradient id="SVGID_4_" gradientUnits="userSpaceOnUse" x1="197.789" y1="116.6039" x2="102.189" y2="212.2039" gradientTransform="matrix(1.0039 0 0 -1.0039 0.1922 516.5618)">
	<stop  offset="0" style="stop-color:#FF5D00;stop-opacity:0"/>
	<stop  offset="1" style="stop-color:#D54003"/>
</linearGradient>
<path style="fill:url(#SVGID_4_);" d="M327.353,459.994H190.56l-75.196-75.196c-3.31-2.146-5.515-5.87-5.515-10.094v-60.52
	c0-6.63,5.398-12.029,12.029-12.029h43.631c4.235,0,7.958,2.204,10.104,5.514l-0.327,0.26L327.353,459.994z"/>
<path style="fill:#503837;" d="M165.512,379.682h-43.627c-2.752,0-4.981-2.231-4.981-4.981v-60.511c0-2.752,2.231-4.981,4.981-4.981
	h43.627c2.752,0,4.981,2.231,4.981,4.981V374.7C170.493,377.451,168.262,379.682,165.512,379.682z"/>
<path style="fill:#FFFFFF;" d="M165.512,386.733h-43.628c-6.635,0-12.033-5.398-12.033-12.033v-60.511
	c0-6.635,5.398-12.033,12.033-12.033h43.628c6.635,0,12.033,5.398,12.033,12.033V374.7
	C177.545,381.335,172.146,386.733,165.512,386.733z M123.953,372.63h39.488v-56.371h-39.488
	C123.953,316.259,123.953,372.63,123.953,372.63z"/>
<linearGradient id="SVGID_5_" gradientUnits="userSpaceOnUse" x1="362.201" y1="127.2259" x2="297.481" y2="191.9459" gradientTransform="matrix(1.0039 0 0 -1.0039 0.1922 516.5618)">
	<stop  offset="0" style="stop-color:#FF5D00;stop-opacity:0"/>
	<stop  offset="1" style="stop-color:#D54003"/>
</linearGradient>
<path style="fill:url(#SVGID_5_);" d="M370.581,327.118v132.877h-4.292L291.093,384.8c-3.32-2.146-5.524-5.87-5.524-10.094v-60.52
	c0-6.63,5.399-12.029,12.039-12.029h43.621c4.235,0,7.958,2.204,10.104,5.514l0.174,0.135l-0.115,0.125L370.581,327.118z"/>
<path style="fill:#503837;" d="M341.233,379.682h-43.627c-2.752,0-4.981-2.231-4.981-4.981v-60.511c0-2.752,2.231-4.981,4.981-4.981
	h43.627c2.752,0,4.981,2.231,4.981,4.981V374.7C346.214,377.451,343.984,379.682,341.233,379.682z"/>
<path style="fill:#FFFFFF;" d="M341.233,386.733h-43.628c-6.635,0-12.033-5.398-12.033-12.033v-60.511
	c0-6.635,5.398-12.033,12.033-12.033h43.628c6.635,0,12.033,5.398,12.033,12.033V374.7
	C353.266,381.335,347.868,386.733,341.233,386.733z M299.675,372.63h39.488v-56.371h-39.488L299.675,372.63L299.675,372.63z"/>
<linearGradient id="SVGID_6_" gradientUnits="userSpaceOnUse" x1="229.6095" y1="307.5135" x2="229.6095" y2="166.4335" gradientTransform="matrix(1.0039 0 0 -1.0039 0.1922 516.5618)">
	<stop  offset="0" style="stop-color:#FFE7A5"/>
	<stop  offset="0.966" style="stop-color:#FFBF5C"/>
</linearGradient>
<path style="fill:url(#SVGID_6_);" d="M402.201,264.118L239.138,101.003c-4.648-4.648-12.184-4.648-16.832,0L59.203,264.106
	c-3.041,3.041-3.041,7.97,0,11.011l6.951,6.951c3.041,3.041,7.97,3.041,11.011,0l151.34-151.34c1.224-1.224,3.208-1.224,4.431,0
	l151.301,151.353c3.041,3.041,7.971,3.041,11.011,0l6.951-6.951C405.242,272.089,405.242,267.159,402.201,264.118z"/>
<linearGradient id="SVGID_7_" gradientUnits="userSpaceOnUse" x1="315.8275" y1="317.5824" x2="137.4476" y2="495.9604" gradientTransform="matrix(1.0039 0 0 -1.0039 0.1922 516.5618)">
	<stop  offset="0" style="stop-color:#FF5D00;stop-opacity:0"/>
	<stop  offset="1" style="stop-color:#D54003"/>
</linearGradient>
<path style="fill:url(#SVGID_7_);" d="M239.138,101.003c-2.324-2.324-5.37-3.486-8.416-3.486v32.293
	c0.802,0,1.604,0.306,2.216,0.918l151.301,151.353c3.041,3.041,7.971,3.041,11.011,0l6.951-6.951c3.041-3.041,3.041-7.971,0-11.011
	L239.138,101.003z"/>
<path style="fill:#DB9E36;" d="M201.576,459.99V324.133c0-16.097,13.049-29.146,29.146-29.146l0,0
	c16.097,0,29.146,13.049,29.146,29.146V459.99H201.576z"/>
<path style="fill:#9E6429;" d="M267.085,459.99h-14.434V323.968c0-11.971-9.794-21.764-21.764-21.764h-0.328
	c-12.02,0-21.764,9.744-21.764,21.764V459.99h-14.435V324.133c0-20.082,16.281-36.363,36.363-36.363l0,0
	c20.082,0,36.363,16.281,36.363,36.363L267.085,459.99L267.085,459.99z"/>
<circle style="fill:#FFFFFF;" cx="220.381" cy="352.337" r="6.582"/>
<rect x="90.865" y="421.487" style="fill:#654E48;" width="279.713" height="38.51"/>
<linearGradient id="SVGID_8_" gradientUnits="userSpaceOnUse" x1="74.363" y1="96.8279" x2="124.883" y2="46.3079" gradientTransform="matrix(1.0039 0 0 -1.0039 0.1922 516.5618)">
	<stop  offset="0" style="stop-color:#9EB644"/>
	<stop  offset="1" style="stop-color:#738611"/>
</linearGradient>
<path style="fill:url(#SVGID_8_);" d="M139.129,444.944c0,5.314-1.006,10.386-2.84,15.047H59.763
	c-1.835-4.661-2.84-9.733-2.84-15.047c0-5.174,0.954-10.122,2.701-14.679c5.908-15.457,20.875-26.423,38.402-26.423
	s32.494,10.966,38.402,26.423C138.175,434.822,139.129,439.769,139.129,444.944z"/>
<linearGradient id="SVGID_9_" gradientUnits="userSpaceOnUse" x1="118.3479" y1="85.7128" x2="154.9979" y2="49.0628" gradientTransform="matrix(1.0039 0 0 -1.0039 0.1922 516.5618)">
	<stop  offset="0" style="stop-color:#9EB644"/>
	<stop  offset="1" style="stop-color:#738611"/>
</linearGradient>
<path style="fill:url(#SVGID_9_);" d="M165.634,449.076c0,3.855-0.73,7.534-2.06,10.915h-55.512
	c-1.331-3.381-2.06-7.061-2.06-10.915c0-3.754,0.692-7.343,1.96-10.649c4.286-11.213,15.142-19.168,27.857-19.168
	s23.571,7.954,27.857,19.168C164.941,441.733,165.634,445.322,165.634,449.076z"/>
<linearGradient id="SVGID_10_" gradientUnits="userSpaceOnUse" x1="328.0705" y1="103.5353" x2="386.9604" y2="44.6454" gradientTransform="matrix(1.0039 0 0 -1.0039 0.1922 516.5618)">
	<stop  offset="0" style="stop-color:#9EB644"/>
	<stop  offset="1" style="stop-color:#738611"/>
</linearGradient>
<path style="fill:url(#SVGID_10_);" d="M404.482,442.451c0,6.194-1.173,12.106-3.311,17.54h-89.203
	c-2.139-5.433-3.311-11.345-3.311-17.54c0-6.032,1.112-11.799,3.148-17.112c6.888-18.018,24.333-30.801,44.765-30.801
	c20.432,0,37.877,12.783,44.765,30.801C403.37,430.653,404.482,436.419,404.482,442.451z"/>
<path style="fill:#654E48;" d="M260.442,266.506h-59.479c-2.345,0-4.247-1.901-4.247-4.247v-29.74
	c0-18.77,15.216-33.986,33.986-33.986l0,0c18.77,0,33.986,15.216,33.986,33.986v29.74
	C264.689,264.604,262.788,266.506,260.442,266.506z"/>
<path style="fill:#FFFFFF;" d="M230.702,192.081c-22.298,0-40.439,18.141-40.439,40.439v29.739c0,5.9,4.8,10.7,10.699,10.7h59.479
	c5.9,0,10.7-4.8,10.7-10.7V232.52C271.141,210.222,253,192.081,230.702,192.081z M258.013,229.078h-20.857v-23.32
	C248.146,208.409,256.582,217.667,258.013,229.078z M224.249,205.758v23.32h-20.857
	C204.823,217.667,213.259,208.409,224.249,205.758z M203.17,241.984h21.08v18.069h-21.08V241.984z M237.155,260.052v-18.069h21.08
	v18.069H237.155z"/>
<linearGradient id="SVGID_11_" gradientUnits="userSpaceOnUse" x1="49.0718" y1="389.9136" x2="501.4806" y2="389.9136" gradientTransform="matrix(1.0039 0 0 -1.0039 0.1922 516.5618)">
	<stop  offset="0" style="stop-color:#9EB644"/>
	<stop  offset="1" style="stop-color:#738611"/>
</linearGradient>
<path style="fill:url(#SVGID_11_);" d="M492.083,27.176c0.239,0.047,0.469,0.112,0.703,0.172c0.221,0.055,0.443,0.104,0.661,0.17
	c0.227,0.069,0.446,0.155,0.669,0.234c0.221,0.079,0.443,0.152,0.661,0.242c0.205,0.085,0.401,0.185,0.6,0.279
	c0.226,0.105,0.453,0.206,0.674,0.324c0.189,0.101,0.368,0.217,0.552,0.326c0.219,0.131,0.44,0.254,0.653,0.397
	c0.2,0.134,0.387,0.282,0.578,0.426c0.184,0.137,0.371,0.265,0.55,0.412c0.345,0.283,0.676,0.584,0.994,0.899
	c0.018,0.018,0.038,0.033,0.056,0.051c0.018,0.018,0.032,0.037,0.049,0.055c0.315,0.318,0.615,0.65,0.9,0.996
	c0.146,0.177,0.271,0.362,0.407,0.543c0.145,0.194,0.295,0.383,0.43,0.584c0.143,0.213,0.266,0.434,0.396,0.652
	c0.109,0.184,0.226,0.363,0.327,0.553c0.118,0.222,0.22,0.45,0.325,0.676c0.093,0.199,0.193,0.395,0.277,0.598
	c0.091,0.22,0.165,0.445,0.244,0.669c0.078,0.219,0.163,0.435,0.231,0.66c0.068,0.224,0.117,0.452,0.175,0.679
	c0.057,0.228,0.121,0.453,0.168,0.685c0.052,0.264,0.084,0.53,0.121,0.796c0.028,0.198,0.066,0.393,0.085,0.593
	c0.047,0.474,0.072,0.95,0.072,1.427v59.466c0,7.934-6.432,14.366-14.366,14.366c-7.934,0-14.366-6.432-14.366-14.366V75.945
	l-86.092,86.091c-14.997,14.997-39.4,14.998-54.396,0l-94.79-94.79c-1.838-1.838-4.282-2.85-6.881-2.85
	c-2.599,0-5.043,1.012-6.881,2.85L73.981,219.133c-5.61,5.611-14.707,5.611-20.316,0c-5.611-5.611-5.611-14.706,0-20.316
	L205.552,46.93c14.997-14.997,39.399-14.997,54.396,0l94.79,94.79c3.795,3.795,9.971,3.793,13.763,0l86.092-86.091h-24.79
	c-7.934,0-14.366-6.432-14.366-14.366s6.432-14.366,14.366-14.366h59.472c0.473,0,0.946,0.025,1.418,0.071
	c0.213,0.021,0.419,0.06,0.628,0.09C491.575,27.095,491.83,27.125,492.083,27.176z"/>
<g>
	<path style="fill:#9FC7E2;" d="M500.62,187.314h-81.135c-1.67,0-3.022,1.353-3.022,3.022v6.51c0,1.67,1.353,3.022,3.022,3.022
		h81.135c1.67,0,3.022-1.353,3.022-3.022v-6.51C503.641,188.667,502.288,187.314,500.62,187.314z"/>
	<path style="fill:#9FC7E2;" d="M500.62,208.396h-81.135c-1.67,0-3.022,1.353-3.022,3.022v6.51c0,1.67,1.353,3.022,3.022,3.022
		h81.135c1.67,0,3.022-1.353,3.022-3.022v-6.51C503.641,209.749,502.288,208.396,500.62,208.396z"/>
	<path style="fill:#9FC7E2;" d="M466.724,229.478h-47.24c-1.67,0-3.022,1.353-3.022,3.022v6.51c0,1.67,1.353,3.022,3.022,3.022
		h47.24c1.669,0,3.022-1.353,3.022-3.022v-6.51C469.746,230.831,468.393,229.478,466.724,229.478z"/>
	<path style="fill:#9FC7E2;" d="M503.38,453.898c-4.761,0-8.62,3.859-8.62,8.62v8.726H39.986c-3.646,0-6.602-2.956-6.602-6.602
		V24.774h8.563c4.761,0,8.62-3.859,8.62-8.62s-3.859-8.62-8.62-8.62H8.62C3.859,7.536,0,11.395,0,16.155
		c0,4.761,3.859,8.62,8.62,8.62h7.526v446.422c0,9.546,7.739,17.285,17.286,17.285h461.329v7.364c0,4.761,3.859,8.62,8.62,8.62
		c4.761,0,8.62-3.859,8.62-8.62v-33.328C512,457.757,508.141,453.898,503.38,453.898z"/>
</g>
<g>
</g>
<g>
</g>
<g>
</g>
<g>
</g>
<g>
</g>
<g>
</g>
<g>
</g>
<g>
</g>
<g>
</g>
<g>
</g>
<g>
</g>
<g>
</g>
<g>
</g>
<g>
</g>
<g>
</g>
</svg>
